<svg width="100" height="100" viewBox="0 0 100 100" fill="none" xmlns="http://www.w3.org/2000/svg">
<rect width="100" height="100" rx="10" fill="#06B6D4"/>
<path d="M79.6667 27.25C80.8125 27.25 81.75 28.1875 81.75 29.3333V71C81.75 72.1458 80.8125 73.0833 79.6667 73.0833H21.3333C20.1875 73.0833 19.25 72.1458 19.25 71V29.3333C19.25 28.1875 20.1875 27.25 21.3333 27.25H79.6667ZM21.3333 21C16.737 21 13 24.737 13 29.3333V71C13 75.5964 16.737 79.3333 21.3333 79.3333H79.6667C84.263 79.3333 88 75.5964 88 71V29.3333C88 24.737 84.263 21 79.6667 21H21.3333ZM40.0833 50.1667C42.2935 50.1667 44.4131 49.2887 45.9759 47.7259C47.5387 46.1631 48.4167 44.0435 48.4167 41.8333C48.4167 39.6232 47.5387 37.5036 45.9759 35.9408C44.4131 34.378 42.2935 33.5 40.0833 33.5C37.8732 33.5 35.7536 34.378 34.1908 35.9408C32.628 37.5036 31.75 39.6232 31.75 41.8333C31.75 44.0435 32.628 46.1631 34.1908 47.7259C35.7536 49.2887 37.8732 50.1667 40.0833 50.1667ZM35.9167 54.3333C30.1615 54.3333 25.5 58.9948 25.5 64.75C25.5 65.8958 26.4375 66.8333 27.5833 66.8333H52.5833C53.7292 66.8333 54.6667 65.8958 54.6667 64.75C54.6667 58.9948 50.0052 54.3333 44.25 54.3333H35.9167ZM61.9583 35.5833C60.2266 35.5833 58.8333 36.9766 58.8333 38.7083C58.8333 40.4401 60.2266 41.8333 61.9583 41.8333H72.375C74.1068 41.8333 75.5 40.4401 75.5 38.7083C75.5 36.9766 74.1068 35.5833 72.375 35.5833H61.9583ZM61.9583 48.0833C60.2266 48.0833 58.8333 49.4766 58.8333 51.2083C58.8333 52.9401 60.2266 54.3333 61.9583 54.3333H72.375C74.1068 54.3333 75.5 52.9401 75.5 51.2083C75.5 49.4766 74.1068 48.0833 72.375 48.0833H61.9583Z" fill="#F8FAFC"/>
</svg>
