<?xml version="1.0" standalone="no"?>
<!DOCTYPE svg PUBLIC "-//W3C//DTD SVG 20010904//EN"
 "http://www.w3.org/TR/2001/REC-SVG-20010904/DTD/svg10.dtd">
<svg version="1.0" xmlns="http://www.w3.org/2000/svg"
 width="700.000000pt" height="700.000000pt" viewBox="0 0 700.000000 700.000000"
 preserveAspectRatio="xMidYMid meet">
<metadata>
Created by potrace 1.14, written by Peter Selinger 2001-2017
</metadata>
<g transform="translate(0.000000,700.000000) scale(0.100000,-0.100000)"
fill="#000000" stroke="none">
<path d="M560 6985 c-284 -57 -506 -289 -550 -575 -8 -56 -10 -822 -8 -2955 3
-2730 4 -2883 21 -2939 72 -240 254 -422 492 -493 57 -17 203 -18 2940 -21
2133 -2 2899 0 2955 8 297 46 534 283 580 580 8 56 10 822 8 2955 -3 2730 -4
2883 -21 2939 -72 241 -252 421 -493 493 -56 17 -208 18 -2959 20 -2347 1
-2912 -1 -2965 -12z m4714 -1233 l159 -319 319 -159 c176 -87 322 -162 324
-166 3 -4 -141 -80 -319 -169 l-324 -162 -162 -324 c-89 -178 -165 -322 -169
-319 -4 2 -79 148 -166 324 l-159 319 -319 159 c-176 87 -322 162 -324 166 -3
4 141 80 319 169 l324 162 162 324 c89 178 165 322 169 319 4 -2 79 -148 166
-324z m-2135 -980 l324 -649 654 -327 c360 -179 652 -330 649 -334 -2 -4 -297
-153 -654 -331 l-649 -324 -327 -656 -328 -656 -327 655 -327 655 -649 326
c-358 180 -649 330 -648 335 0 4 293 154 649 333 l648 326 325 652 c179 358
328 650 331 648 3 -2 151 -296 329 -653z m2135 -2300 l159 -319 319 -159 c176
-87 322 -162 324 -166 3 -4 -141 -80 -319 -169 l-324 -162 -162 -324 c-89
-178 -165 -322 -169 -319 -4 2 -79 148 -166 324 l-159 319 -319 159 c-176 87
-322 162 -324 166 -3 4 141 80 319 169 l324 162 162 324 c89 178 165 322 169
319 4 -2 79 -148 166 -324z"/>
<path d="M2660 4041 l-143 -288 -279 -139 c-154 -76 -282 -142 -284 -146 -3
-4 123 -71 279 -149 l284 -142 145 -291 145 -291 146 290 145 290 282 140
c155 77 284 143 286 147 3 4 -125 72 -283 152 l-288 144 -140 282 c-77 155
-142 283 -145 285 -3 2 -71 -126 -150 -284z"/>
</g>
</svg>
