<svg width="100" height="100" viewBox="0 0 100 100" fill="none" xmlns="http://www.w3.org/2000/svg">
<rect width="100" height="100" rx="10" fill="#22C55E"/>
<path d="M38.75 44.375C41.2364 44.375 43.621 43.3873 45.3791 41.6291C47.1373 39.871 48.125 37.4864 48.125 35C48.125 32.5136 47.1373 30.129 45.3791 28.3709C43.621 26.6127 41.2364 25.625 38.75 25.625C36.2636 25.625 33.879 26.6127 32.1209 28.3709C30.3627 30.129 29.375 32.5136 29.375 35C29.375 37.4864 30.3627 39.871 32.1209 41.6291C33.879 43.3873 36.2636 44.375 38.75 44.375ZM38.75 20C42.7282 20 46.5436 21.5804 49.3566 24.3934C52.1696 27.2064 53.75 31.0218 53.75 35C53.75 38.9782 52.1696 42.7936 49.3566 45.6066C46.5436 48.4196 42.7282 50 38.75 50C34.7718 50 30.9564 48.4196 28.1434 45.6066C25.3304 42.7936 23.75 38.9782 23.75 35C23.75 31.0218 25.3304 27.2064 28.1434 24.3934C30.9564 21.5804 34.7718 20 38.75 20ZM18.2773 74.375H46.25C46.25 76.6133 47.1523 78.5234 48.4648 80H15.9805C14.0586 80 12.5 78.4414 12.5 76.5195C12.5 64.9766 21.8516 55.625 33.3945 55.625H38.75H44.1055C48.3594 55.625 52.3203 56.9023 55.625 59.082V65.1289C55.25 65.1758 54.8633 65.2461 54.5 65.3281C51.7695 62.7969 48.125 61.25 44.1055 61.25H33.3945C25.6953 61.25 19.3203 66.957 18.2773 74.375ZM86.3281 39.2773C87.0664 39.8047 87.5 40.6602 87.5 41.5625V47.1875V65.9375C87.5 66.0781 87.4883 66.2188 87.4648 66.3594C87.4883 66.5352 87.5 66.6992 87.5 66.875C87.5 69.9805 84.1367 72.5 80 72.5C75.8633 72.5 72.5 69.9805 72.5 66.875C72.5 63.7695 75.8633 61.25 80 61.25C80.6445 61.25 81.2773 61.3086 81.875 61.4258V51.0898L65 56.7148V74.375C65 77.4805 61.6367 80 57.5 80C53.3633 80 50 77.4805 50 74.375C50 71.2695 53.3633 68.75 57.5 68.75C58.1445 68.75 58.7773 68.8086 59.375 68.9258V54.6875V49.0625C59.375 47.8555 60.1484 46.7773 61.2969 46.3906L83.7969 38.8906C84.6523 38.6094 85.6016 38.75 86.3281 39.2773Z" fill="#0F172A"/>
</svg>
