<svg width="100" height="100" viewBox="0 0 100 100" fill="none" xmlns="http://www.w3.org/2000/svg">
<rect width="100" height="100" rx="10" fill="#EC4899"/>
<path d="M46.3333 27.25C47.4792 27.25 48.4167 28.1875 48.4167 29.3333V41.8333C48.4167 42.9792 47.4792 43.9167 46.3333 43.9167H21.3333C20.1875 43.9167 19.25 42.9792 19.25 41.8333V29.3333C19.25 28.1875 20.1875 27.25 21.3333 27.25H46.3333ZM21.3333 21C16.737 21 13 24.737 13 29.3333V41.8333C13 46.4297 16.737 50.1667 21.3333 50.1667H46.3333C50.9297 50.1667 54.6667 46.4297 54.6667 41.8333V29.3333C54.6667 24.737 50.9297 21 46.3333 21H21.3333ZM79.6667 27.25C80.8125 27.25 81.75 28.1875 81.75 29.3333V58.5C81.75 59.6458 80.8125 60.5833 79.6667 60.5833H71.3333C70.1875 60.5833 69.25 59.6458 69.25 58.5V29.3333C69.25 28.1875 70.1875 27.25 71.3333 27.25H79.6667ZM71.3333 21C66.737 21 63 24.737 63 29.3333V58.5C63 63.0964 66.737 66.8333 71.3333 66.8333H79.6667C84.263 66.8333 88 63.0964 88 58.5V29.3333C88 24.737 84.263 21 79.6667 21H71.3333ZM29.6667 62.6667H48.4167C49.5625 62.6667 50.5 63.6042 50.5 64.75V71C50.5 72.1458 49.5625 73.0833 48.4167 73.0833H29.6667C28.5208 73.0833 27.5833 72.1458 27.5833 71V64.75C27.5833 63.6042 28.5208 62.6667 29.6667 62.6667ZM21.3333 64.75V71C21.3333 75.5964 25.0703 79.3333 29.6667 79.3333H48.4167C53.013 79.3333 56.75 75.5964 56.75 71V64.75C56.75 60.1536 53.013 56.4167 48.4167 56.4167H29.6667C25.0703 56.4167 21.3333 60.1536 21.3333 64.75Z" fill="#0F172A"/>
</svg>
