<svg width="100" height="100" viewBox="0 0 100 100" fill="none" xmlns="http://www.w3.org/2000/svg">
<rect width="100" height="100" rx="10" fill="#3B82F6"/>
<path d="M82.7417 68.5277C81.5267 65.2928 80.3118 62.0579 79.0968 58.8179H70.887C71.622 56.878 72.3519 54.933 73.0869 52.9931H76.9068L74.9919 47.8882L77.9118 40.1433L84.8267 58.5829C85.2717 59.7579 85.7117 60.9379 86.1516 62.1179C89.9316 50.4931 87.8166 37.7534 80.4768 27.9736C78.8418 32.3385 77.2068 36.6984 75.5669 41.0583C75.0469 42.4583 74.5269 43.8632 74.0069 45.2632L73.9919 45.2282C73.0219 47.8182 72.0519 50.4031 71.082 52.9931C70.352 54.933 69.627 56.878 68.897 58.8179L65.2521 68.5277H59.4272C56.5173 60.7529 53.6073 52.9831 50.6874 45.2182C48.1074 52.0931 45.5325 58.9679 42.9476 65.8478L40.0226 58.118L47.7725 37.4534H53.5973L62.3371 60.7529L65.2521 52.9831L71.077 37.4484L76.3669 23.3537C61.3772 9.06899 37.6477 9.63397 23.358 24.6237C19.843 28.3086 17.1131 32.6785 15.3431 37.4534H40.0076V43.2783H32.4828L39.0376 60.7529L41.9476 68.5227H36.1227L26.6579 43.2733H13.7132C9.71326 63.5878 22.943 83.2974 43.2626 87.2923C59.0172 90.3923 74.9969 83.1174 83.0017 69.2027L82.7417 68.5177V68.5277Z" fill="#F8FAFC"/>
</svg>
