<svg width="100" height="100" viewBox="0 0 100 100" fill="none" xmlns="http://www.w3.org/2000/svg">
<rect width="100" height="100" rx="10" fill="#720040"/>
<mask id="mask0_53_386" style="mask-type:luminance" maskUnits="userSpaceOnUse" x="12" y="37" width="66" height="37">
<path d="M12.5 37.9207H77.3912V73.3806H12.5V37.9207Z" fill="white"/>
</mask>
<g mask="url(#mask0_53_386)">
<path d="M46.7722 70.303C48.1702 70.4058 49.5936 70.4595 51.0375 70.4595C61.4183 70.4595 70.7427 67.7268 77.1382 63.3888C70.9831 69.3857 59.9776 73.3805 47.4269 73.3805C28.1392 73.3805 12.5032 63.947 12.5032 52.3105C12.5032 46.9366 15.8369 42.0325 21.3247 38.3113C18.0209 41.5296 16.1121 45.3251 16.1121 49.3895C16.1121 52.0923 16.9566 54.6764 18.4938 57.0518C20.3378 59.9 23.0153 62.103 26.1181 63.4662C31.3623 65.772 37.8179 67.1305 44.8017 67.1305C61.4515 67.1305 75.1091 59.4034 76.4597 49.5682C76.5325 50.098 76.5704 50.6341 76.5704 51.1734C76.5704 61.3597 63.3999 69.6894 46.7722 70.303Z" fill="#0F172A"/>
</g>
<mask id="mask1_53_386" style="mask-type:luminance" maskUnits="userSpaceOnUse" x="22" y="26" width="66" height="36">
<path d="M22.7353 26.6194H87.5V61.8073H22.7353V26.6194Z" fill="white"/>
</mask>
<g mask="url(#mask1_53_386)">
<path d="M78.6833 61.6887C81.987 58.4704 83.8942 54.6748 83.8942 50.6104C83.8942 50.525 83.8942 50.4412 83.8926 50.3558C83.8072 46.0352 81.4619 42.0768 77.7755 39.8279C72.0173 36.3155 64.023 34.1378 55.1872 34.1378C38.5374 34.1378 24.8798 41.8665 23.5292 51.7001C23.4565 51.1719 23.4185 50.6358 23.4185 50.0965C23.4185 39.5101 37.6423 30.929 55.1872 30.929C58.5368 30.929 61.763 31.2421 64.7947 31.8225C60.044 30.3628 54.6669 29.5404 48.9705 29.5404C38.5896 29.5404 29.2652 32.2732 22.8682 36.6112C29.0249 30.6142 40.0288 26.6194 52.581 26.6194C71.8687 26.6194 87.5047 36.0529 87.5047 47.6895C87.5047 53.0633 84.171 57.9659 78.6833 61.6887Z" fill="#0F172A"/>
</g>
<path d="M36.7743 52.0834L36.8312 52.3554C36.8312 52.4693 36.7712 52.6053 36.6541 52.7603C36.341 53.1651 35.8397 53.6332 35.1486 54.1646C34.4559 54.6928 33.9466 54.9554 33.6177 54.9554C33.2919 54.9554 33.0373 54.8605 32.8523 54.6707C32.6656 54.4778 32.5739 54.2579 32.5739 54.0128C32.5739 53.7186 32.8839 53.0671 33.5038 52.0581C34.4274 50.5652 35.6072 48.8192 37.0463 46.8202C36.7427 47.1365 35.9346 47.9826 34.6235 49.3569C31.7262 52.3934 30.0325 54.114 29.5438 54.5189C29.4631 54.5821 29.3445 54.6138 29.1895 54.6138C29.0377 54.6138 28.8748 54.5537 28.7025 54.4303C28.5332 54.3038 28.4494 54.163 28.4494 54.0065V53.9685C28.4652 53.7708 28.9239 52.7966 29.8221 51.046C30.7204 49.2921 31.4732 47.8988 32.0805 46.8645C31.1822 47.8514 30.2744 48.9521 29.3603 50.1666C27.6176 52.474 26.3445 54.4398 25.5395 56.0624C25.4667 56.2142 25.3798 56.2901 25.2738 56.2901C25.1694 56.2901 25.0176 56.2617 24.8183 56.2079C24.4008 56.094 24.1921 55.8948 24.1921 55.6133C24.1921 55.4393 24.5432 54.8288 25.2422 53.7787C25.938 52.7286 26.7446 51.5821 27.665 50.3374C28.5838 49.0897 29.5375 47.8893 30.5243 46.738C31.886 45.1439 32.7605 44.3468 33.1496 44.3468C33.2128 44.3468 33.2713 44.3642 33.3267 44.3974C33.3852 44.4275 33.4216 44.4417 33.4342 44.4417C33.45 44.4417 33.4659 44.4338 33.4785 44.4164C33.5418 44.3405 33.6635 44.3025 33.8454 44.3025C34.0257 44.3025 34.2028 44.3389 34.3768 44.4101C34.5539 44.4828 34.6425 44.5619 34.6425 44.6505C34.6425 44.7106 34.4037 45.1629 33.9277 46.0105C32.3367 48.8287 31.2708 50.7644 30.7267 51.8177C31.2486 51.1899 31.9951 50.3548 32.9661 49.3127C33.9356 48.2673 34.954 47.2235 36.0215 46.1813C37.4085 44.8371 38.2388 44.1634 38.5139 44.1634C38.6183 44.1634 38.7559 44.1871 38.9251 44.2329C39.2193 44.3183 39.5024 44.3595 39.7728 44.3595C39.8487 44.3769 39.9135 44.4101 39.9689 44.4607C40.0227 44.5081 40.0511 44.5587 40.0511 44.6125C40.0511 44.6631 40.0353 44.7058 40.0069 44.739C38.4633 46.7886 37.1618 48.5962 36.1038 50.1603C35.0442 51.726 34.3926 52.784 34.1491 53.3359C34.6456 53.2316 35.3889 52.6338 36.3758 51.5457C36.4169 51.4919 36.4469 51.4556 36.4643 51.4382C36.4849 51.4176 36.5039 51.397 36.5213 51.3749C36.6004 51.2832 36.662 51.3433 36.7047 51.5584C36.7205 51.6817 36.7332 51.7671 36.7427 51.8177C36.7506 51.8652 36.7569 51.9158 36.7617 51.9695C36.7696 52.0249 36.7743 52.0628 36.7743 52.0834Z" fill="#0F172A"/>
<path d="M37.7722 54.6391C37.7722 54.3481 37.8861 54.0919 38.1138 53.8673C38.3415 53.6396 38.5645 53.5257 38.7844 53.5257C39.1766 53.5257 39.3727 53.6886 39.3727 54.0128C39.3727 54.2785 39.2604 54.5363 39.0374 54.7846C38.8128 55.0328 38.563 55.1578 38.2846 55.1578C37.943 55.1578 37.7722 54.9838 37.7722 54.6391Z" fill="#0F172A"/>
<path d="M47.1251 47.4212L47.3275 47.3706C47.356 47.3706 47.3718 47.399 47.3718 47.4528C47.3718 47.5082 47.2896 47.5967 47.1251 47.7185C46.9606 47.8419 46.7614 47.902 46.5305 47.902C46.3027 47.902 46.1224 47.8371 45.9928 47.7059C45.8615 47.5714 45.7967 47.399 45.7967 47.1871C45.7967 46.7364 46.0892 46.2889 46.676 45.846C47.2659 45.4032 47.9917 45.0474 48.8521 44.777C49.7124 44.5081 50.5348 44.3721 51.3192 44.3721C52.4737 44.3721 53.3324 44.5603 53.8938 44.9351C54.4537 45.3115 54.7352 45.8144 54.7352 46.447C54.7352 47.2536 54.1753 48.0332 53.0588 48.7876C52.4673 49.1845 51.8316 49.5024 51.1484 49.7428C51.898 49.8235 52.4974 50.0638 52.9449 50.464C53.2818 50.7676 53.451 51.1566 53.451 51.6279C53.451 52.096 53.2249 52.5752 52.7741 53.0639C52.3266 53.5494 51.7304 53.9527 50.9839 54.2722C50.2406 54.5932 49.4799 54.7529 48.7003 54.7529C47.8051 54.7529 47.1472 54.5552 46.7266 54.1583C46.5368 53.9812 46.4419 53.823 46.4419 53.6838C46.4419 53.5415 46.4751 53.3913 46.5431 53.2347C46.1968 53.8641 45.9437 54.3354 45.784 54.6517C45.7113 54.794 45.5689 54.8668 45.3538 54.8668C45.1388 54.8668 44.9711 54.8099 44.8541 54.696C44.7355 54.5821 44.677 54.454 44.677 54.3101C44.677 54.1678 44.6975 54.0413 44.7402 53.9306C44.9506 53.3739 45.7018 52.0644 46.9923 50.0022C48.2859 47.9399 49.0798 46.7443 49.3708 46.4154C49.5226 46.2303 49.8658 46.137 50.4019 46.137C50.617 46.137 50.7245 46.1861 50.7245 46.2825C50.7245 46.3553 50.4082 46.8882 49.7757 47.883C49.1462 48.8793 48.8173 49.4012 48.7888 49.4518C49.4467 49.262 50.1204 49.0027 50.8131 48.6737C51.5042 48.3416 52.1068 47.9652 52.6223 47.5477C53.1363 47.1302 53.3941 46.7538 53.3941 46.4154C53.3941 45.8634 52.79 45.5867 51.5849 45.5867C50.3228 45.5867 49.1083 45.9204 47.9411 46.5862C47.6501 46.7554 47.4287 46.9088 47.2769 47.048C47.1251 47.184 47.0492 47.2804 47.0492 47.339C47.0492 47.3943 47.0745 47.4212 47.1251 47.4212ZM48.4029 50.8245C48.3175 50.8245 48.2226 50.7233 48.1183 50.5209C47.666 51.242 47.1947 52.0454 46.7013 52.9311C46.9243 52.6243 47.2485 52.4693 47.6755 52.4693C47.9617 52.4693 48.1056 52.5041 48.1056 52.5705C48.1056 52.6005 48.074 52.6274 48.0107 52.6527C47.8209 52.7255 47.7261 52.8298 47.7261 52.969C47.7261 53.3106 48.0882 53.4814 48.8141 53.4814C49.7962 53.4814 50.6866 53.1398 51.4837 52.4566C51.9091 52.0992 52.1226 51.7845 52.1226 51.5141C52.1226 51.3464 51.9486 51.163 51.6038 50.9637C51.2021 50.7407 50.5885 50.6284 49.763 50.6284C49.1889 50.6284 48.8204 50.6632 48.656 50.7296C48.4947 50.7929 48.4108 50.8245 48.4029 50.8245Z" fill="#0F172A"/>
<path d="M58.3409 49.2873C58.4833 49.2873 58.6288 49.3506 58.7774 49.4771C58.9292 49.6036 59.0051 49.7997 59.0051 50.0654C59.0051 50.3279 58.9118 50.6695 58.7268 51.0902C58.5449 51.5077 58.2919 51.9347 57.9677 52.368C57.6467 52.803 57.2924 53.2126 56.9049 53.5953C56.5159 53.9748 56.0984 54.288 55.6524 54.5315C55.2049 54.7751 54.7984 54.8984 54.4315 54.8984C54.0646 54.8984 53.7705 54.7845 53.5522 54.5568C53.3324 54.3259 53.2233 54.0049 53.2233 53.5953C53.2233 53.1873 53.3213 52.7334 53.5206 52.2352C53.723 51.7339 53.9824 51.2926 54.2987 50.9131C54.6181 50.5304 54.9645 50.1856 55.3361 49.882C56.1079 49.262 56.7863 48.9521 57.3731 48.9521C57.6293 48.9521 57.8254 49.0153 57.9614 49.1418C58.0072 49.1845 58.031 49.2225 58.031 49.2557V49.3C58.0974 49.2921 58.2018 49.2873 58.3409 49.2873ZM57.6261 50.2299H57.5755C57.411 50.2299 57.3288 50.1097 57.3288 49.8693C56.9824 49.9832 56.6203 50.184 56.2407 50.4703C55.8612 50.7534 55.5212 51.0886 55.2223 51.4761C54.615 52.2573 54.3066 52.9152 54.2987 53.4498C54.2987 53.7155 54.3951 53.8483 54.5897 53.8483C54.7826 53.8483 55.072 53.7202 55.4563 53.4624C55.839 53.2062 56.2186 52.8409 56.595 52.368C56.9745 51.892 57.256 51.4808 57.4426 51.1345C57.6324 50.785 57.7273 50.5462 57.7273 50.4197C57.7273 50.2931 57.6925 50.2299 57.6261 50.2299Z" fill="#0F172A"/>
<path d="M62.1286 50.1603C60.5882 50.2584 59.6899 50.3311 59.4337 50.3817H59.4148C59.3167 50.3817 59.2693 50.3216 59.2693 50.1983C59.2693 50.0718 59.342 49.9041 59.4907 49.6922C59.6378 49.4771 59.8196 49.3379 60.0347 49.2747C60.253 49.2083 60.4965 49.1719 60.7622 49.1671C61.8455 49.1466 62.7675 49.0786 63.5266 48.9647C63.5345 48.9647 63.6025 48.9426 63.729 48.8951C63.8556 48.8493 63.9647 48.8255 64.058 48.8255C64.1545 48.8255 64.243 48.8793 64.3237 48.9837C64.4075 49.0849 64.4502 49.2178 64.4502 49.3822C64.4502 49.5435 64.4075 49.6653 64.3237 49.7491C64.2383 49.8345 64.0849 49.9073 63.8619 49.9705C61.7822 51.59 60.4918 52.8346 59.9904 53.7028C60.1454 53.657 60.5439 53.5747 61.186 53.4561C62.8561 53.1493 63.7686 52.9105 63.9251 52.7413C63.971 52.6954 64.0232 52.6717 64.0833 52.6717C64.1418 52.6717 64.2066 52.6954 64.2794 52.7413C64.3506 52.7887 64.3869 52.9927 64.3869 53.3549C64.3869 53.4609 64.3379 53.5921 64.2414 53.7471C64.1434 53.8989 64.0327 54.0049 63.9062 54.0634C63.7796 54.1188 63.0917 54.2532 61.8439 54.4683C60.1865 54.7545 59.2851 54.8984 59.1428 54.8984C59.0036 54.8984 58.915 54.8953 58.8771 54.8921C58.8391 54.8874 58.8043 54.8826 58.7759 54.8794C58.7505 54.8747 58.7221 54.8668 58.6936 54.8541C58.6683 54.8447 58.6493 54.8383 58.6367 54.8352C58.624 54.8304 58.6066 54.8193 58.5861 54.8035C58.5687 54.7909 58.556 54.7814 58.5481 54.7782C58.5386 54.7735 58.507 54.7466 58.4532 54.696C58.4026 54.6454 58.3773 54.522 58.3773 54.3228C58.3773 54.1251 58.3884 54.0065 58.4089 53.9685C58.6367 53.5304 58.9293 53.105 59.2883 52.6907C59.6457 52.2779 59.9651 51.9505 60.2435 51.7102C60.525 51.4666 60.8761 51.1772 61.2936 50.8435C61.7111 50.5114 61.9894 50.2837 62.1286 50.1603Z" fill="#0F172A"/>
<path d="M68.9092 49.2873C69.0515 49.2873 69.197 49.3506 69.3457 49.4771C69.4975 49.6036 69.5734 49.7997 69.5734 50.0654C69.5734 50.3279 69.4801 50.6695 69.295 51.0902C69.1132 51.5077 68.8601 51.9347 68.5359 52.368C68.2149 52.803 67.8606 53.2126 67.4732 53.5953C67.0841 53.9748 66.6666 54.288 66.2207 54.5315C65.7731 54.7751 65.3667 54.8984 64.9998 54.8984C64.6329 54.8984 64.3387 54.7845 64.1205 54.5568C63.9006 54.3259 63.7915 54.0049 63.7915 53.5953C63.7915 53.1873 63.8896 52.7334 64.0888 52.2352C64.2913 51.7339 64.5506 51.2926 64.8669 50.9131C65.1864 50.5304 65.5327 50.1856 65.9044 49.882C66.6761 49.262 67.3546 48.9521 67.9413 48.9521C68.1975 48.9521 68.3936 49.0153 68.5296 49.1418C68.5755 49.1845 68.5992 49.2225 68.5992 49.2557V49.3C68.6656 49.2921 68.77 49.2873 68.9092 49.2873ZM68.1943 50.2299H68.1437C67.9793 50.2299 67.897 50.1097 67.897 49.8693C67.5507 49.9832 67.1885 50.184 66.809 50.4703C66.4294 50.7534 66.0894 51.0886 65.7905 51.4761C65.1832 52.2573 64.8748 52.9152 64.8669 53.4498C64.8669 53.7155 64.9634 53.8483 65.1579 53.8483C65.3508 53.8483 65.6403 53.7202 66.0246 53.4624C66.4073 53.2062 66.7868 52.8409 67.1632 52.368C67.5428 51.892 67.8243 51.4808 68.0109 51.1345C68.2007 50.785 68.2956 50.5462 68.2956 50.4197C68.2956 50.2931 68.2608 50.2299 68.1943 50.2299Z" fill="#0F172A"/>
<path d="M73.38 47.1365L73.5128 47.1239C73.5793 47.1239 73.6346 47.1855 73.6773 47.3073C73.7232 47.4307 73.7469 47.5129 73.7469 47.554C73.7469 47.5967 73.6979 47.679 73.6014 47.8007L71.5771 50.8878C72.2856 50.1761 73.0084 49.6542 73.7469 49.3253C74.0284 49.2035 74.2846 49.1418 74.5123 49.1418C74.7432 49.1418 74.9298 49.2177 75.069 49.3696C75.2114 49.5182 75.2841 49.7033 75.2841 49.9262C75.2841 50.1508 75.2208 50.426 75.0943 50.7549C74.971 51.0807 74.8049 51.4287 74.5946 51.7987C74.3827 52.1704 74.1265 52.5436 73.8228 52.9184C73.5223 53.2901 73.2092 53.6269 72.8803 53.9306C72.5513 54.2342 72.1907 54.4809 71.7985 54.6707C71.4095 54.8605 71.071 54.9553 70.7801 54.9553C70.1854 54.9553 69.8881 54.6833 69.8881 54.1393C69.3314 54.987 68.6909 55.9928 67.965 57.1568C67.2407 58.3207 66.8517 58.9343 66.8011 58.9976C66.7473 59.064 66.703 59.0988 66.6682 59.0988C66.6303 59.0988 66.5765 59.0767 66.5037 59.0356C66.4278 58.9929 66.3503 58.9217 66.2697 58.8205C66.1906 58.7224 66.1495 58.5801 66.1495 58.3903C66.1463 58.2005 66.2001 58.0076 66.314 57.8147C66.956 56.7424 68.1896 54.7339 70.0146 51.7861C71.8444 48.8382 72.836 47.3136 72.9878 47.2124C73.0764 47.1587 73.1618 47.1302 73.2472 47.1302L73.38 47.1365ZM74.0063 50.407C74.0063 50.3105 73.9588 50.2615 73.8671 50.2615C73.6093 50.2615 73.0653 50.6569 72.235 51.4445C71.4079 52.2289 70.7516 52.9469 70.2677 53.5953C70.3894 53.7471 70.5713 53.823 70.8117 53.823C71.0552 53.823 71.3699 53.6949 71.7542 53.4371C72.137 53.1762 72.4912 52.8662 72.817 52.5072C73.1459 52.1498 73.4259 51.7734 73.6583 51.3812C73.8892 50.9858 74.0063 50.6601 74.0063 50.407Z" fill="#0F172A"/>
</svg>
