<svg width="100" height="100" viewBox="0 0 100 100" fill="none" xmlns="http://www.w3.org/2000/svg">
<rect width="100" height="100" rx="10" fill="#FACC15"/>
<path d="M22.8339 49.3343C22.8383 43.8897 24.4581 38.5688 27.4883 34.0452C30.5184 29.5217 34.8226 25.999 39.856 23.923C44.8893 21.8471 50.4254 21.3112 55.7635 22.3833C61.1015 23.4555 66.0014 26.0873 69.8428 29.9458C73.6842 33.8042 76.2945 38.7157 77.343 44.0584C78.3915 49.4011 77.8313 54.9348 75.7331 59.9589C73.6349 64.983 70.0932 69.2716 65.5564 72.2818C61.0195 75.2919 55.6915 76.8882 50.2469 76.8687C46.6381 76.8638 43.0657 76.1474 39.7341 74.7604C36.4025 73.3735 33.3771 71.3432 30.8309 68.7858C28.2847 66.2284 26.2679 63.194 24.8956 59.8563C23.5234 56.5186 22.8228 52.9431 22.8339 49.3343ZM73.8793 51.2407C67.9074 51.2407 62.0594 51.2234 56.2138 51.2803C55.835 51.2803 55.3596 51.7904 55.0996 52.1791C53.5695 54.452 51.2125 55.3482 48.645 54.5658C47.5258 54.2254 46.5471 53.5313 45.8556 52.5876C45.1642 51.644 44.7972 50.5016 44.8099 49.3318C44.8124 48.1616 45.188 47.0226 45.8822 46.0804C46.5763 45.1383 47.5528 44.442 48.6698 44.0928C51.1828 43.3204 53.572 44.276 55.1442 46.5217C55.3466 46.786 55.6007 47.0064 55.891 47.1695C56.1813 47.3325 56.5017 47.4347 56.8328 47.4699C62.1114 47.5417 67.39 47.5145 72.6785 47.5071C73.0771 47.5071 73.4757 47.4328 73.8669 47.3932C73.5351 37.2544 64.4164 25.9718 51.2175 25.6598C37.5852 25.3405 26.8077 35.707 26.6022 49.1387C26.4041 62.1 37.1519 73.0929 50.1875 73.0929C64.3273 73.0954 73.4113 61.5825 73.8793 51.2407Z" fill="#F1F5F9"/>
<path d="M67.6798 82.2884L66.0135 79.1118C81.1337 70.8671 86.8654 53.8577 82.5128 39.6833C80.417 32.7959 76.1744 26.7587 70.4044 22.4533C64.6344 18.1479 57.6392 15.7996 50.4402 15.7513C35.929 15.6548 22.7795 25.2934 18.3427 39.2352C13.8688 53.2932 19.0855 70.5155 34.7331 79.1564L33.0767 82.3156C20.1526 76.0392 10.4347 60.5278 13.6039 42.9812C16.924 24.5606 32.1037 12.0821 50.4154 12.0004C67.8729 11.9211 83.3744 24.3377 86.8654 41.5253C90.8937 61.3721 79.4774 76.6409 67.6798 82.2884Z" fill="#F1F5F9"/>
<path d="M37.677 84.8212L39.8236 78.2205C40.5201 78.4466 41.2208 78.6513 41.9256 78.8345C42.4942 78.9735 43.0219 79.245 43.4656 79.6268C43.8934 79.9952 44.2148 80.4713 44.3966 81.0058C44.5918 81.5782 44.637 82.1912 44.5278 82.786L44.4758 83.1004C44.3883 83.6987 44.1304 84.2591 43.733 84.7147C43.3289 85.163 42.7948 85.4738 42.2054 85.6036C41.5399 85.7531 40.8478 85.7369 40.19 85.5565C39.3449 85.337 38.5072 85.0919 37.677 84.8212ZM40.913 79.7605L39.6528 84.2171C39.9152 84.2913 40.1801 84.3631 40.4426 84.43C40.7047 84.5186 40.983 84.5488 41.258 84.5184C41.5331 84.488 41.7981 84.3979 42.0346 84.2542C42.4505 83.9719 42.7253 83.4966 42.8739 82.8306C42.8987 82.7117 42.9234 82.583 42.9506 82.4716C43.0967 81.7808 43.0497 81.2336 42.8244 80.8028C42.6983 80.5834 42.5265 80.3938 42.3206 80.2468C42.1146 80.0998 41.8794 79.999 41.631 79.9511C41.3908 79.8942 41.1507 79.8397 40.913 79.7605Z" fill="#F1F5F9"/>
<path d="M48.9621 79.9759C49.4449 80.0081 49.9301 80.0304 50.4129 80.0427C50.37 81.6455 50.3271 83.2474 50.2842 84.8484C50.2824 85.2644 50.1509 85.6695 49.9079 86.0072C49.651 86.3514 49.2964 86.6102 48.8903 86.7499C48.4196 86.9149 47.9181 86.9733 47.4221 86.9208C46.5406 86.8391 45.8746 86.5667 45.4414 86.131C45.2261 85.9152 45.0681 85.6491 44.9817 85.3569C44.8952 85.0646 44.883 84.7554 44.9462 84.4573C45.4909 84.5414 46.038 84.6149 46.5877 84.6776C46.5598 84.8115 46.5599 84.9496 46.588 85.0834C46.6161 85.2172 46.6717 85.3437 46.7511 85.455C46.8514 85.556 46.9705 85.6361 47.1018 85.6909C47.2331 85.7457 47.3739 85.7741 47.5161 85.7744C47.6549 85.7944 47.7963 85.7854 47.9314 85.7479C48.0666 85.7104 48.1924 85.6452 48.301 85.5565C48.4077 85.4566 48.4926 85.3358 48.5505 85.2016C48.6084 85.0675 48.6381 84.9228 48.6377 84.7766C48.7483 83.1739 48.8564 81.5737 48.9621 79.9759Z" fill="#F1F5F9"/>
<path d="M57.234 86.6162C55.3402 86.8664 53.4324 86.9946 51.5221 87C51.5221 86.6831 51.5221 86.3687 51.5221 86.0542C52.4036 85.2537 53.2346 84.4284 54.0154 83.5783C54.2807 83.2945 54.5117 82.9803 54.7037 82.6424C54.8346 82.4177 54.8966 82.1594 54.8819 81.8997C54.8728 81.6343 54.762 81.3825 54.5724 81.1965C54.4748 81.1128 54.3606 81.0505 54.2373 81.0139C54.1141 80.9772 53.9844 80.9669 53.8569 80.9836C53.7144 80.9868 53.5742 81.0208 53.446 81.0832C53.3178 81.1456 53.2046 81.2349 53.1141 81.3451C52.9281 81.59 52.8398 81.8953 52.8665 82.2017C52.3714 82.2199 51.8762 82.229 51.381 82.229C51.3788 81.8202 51.4884 81.4187 51.6979 81.0678C51.9071 80.7158 52.2073 80.4267 52.567 80.2309C52.9534 80.0169 53.3836 79.8941 53.8247 79.8719C54.4271 79.7975 55.0371 79.9265 55.5578 80.2383C55.7814 80.3969 55.9666 80.6035 56.0999 80.843C56.2331 81.0825 56.311 81.3488 56.3278 81.6224C56.3672 81.9892 56.3118 82.3601 56.1669 82.6994C55.945 83.1907 55.6476 83.6444 55.2855 84.0438C54.7457 84.6496 54.1812 85.2462 53.592 85.8339C54.759 85.7744 55.9218 85.6688 57.0805 85.5169C57.1375 85.8834 57.187 86.2498 57.234 86.6162Z" fill="#F1F5F9"/>
<path d="M61.0715 84.175C61.2729 82.3412 61.4 80.5131 61.4528 78.6909C61.976 78.544 62.4976 78.3872 63.0175 78.2205C62.9426 80.7077 62.7169 83.1882 62.3416 85.6481C61.7573 85.7934 61.1705 85.9287 60.5813 86.0542C59.1697 84.0136 57.8855 81.8877 56.7362 79.6887C57.2685 79.6119 57.8008 79.5253 58.3307 79.4237C59.1725 81.0314 60.0861 82.6152 61.0715 84.175Z" fill="#F1F5F9"/>
</svg>
