<svg width="100" height="100" viewBox="0 0 100 100" fill="none" xmlns="http://www.w3.org/2000/svg">
<rect width="100" height="100" rx="10" fill="#EB1E5B"/>
<path d="M49.4858 46.4206C49.6684 46.2043 49.7617 46.0765 49.8722 45.966C60.5832 35.2683 71.2957 24.5714 82.0099 13.8761C82.4809 13.4059 82.9613 12.9427 83.4527 12.4936C84.1275 11.8768 84.9308 11.9027 85.6902 12.2185C86.4716 12.5438 86.9144 13.1723 86.9677 14.0736C87.0123 14.8189 86.7388 15.3699 86.2286 15.8816C82.372 19.7461 78.5341 23.6294 74.6767 27.4939C67.461 34.7229 60.236 41.944 53.0133 49.1667C52.9122 49.2678 52.7923 49.3501 52.5336 49.5625C52.7468 49.691 52.9184 49.7537 53.0352 49.8713C63.5534 60.3926 74.0677 70.9179 84.5805 81.4455C85.2168 82.0834 85.832 82.7425 86.4614 83.3875C87.1173 84.06 87.0977 84.8711 86.807 85.6493C86.5076 86.4487 85.8618 86.9056 84.9786 86.9738C84.3179 87.0247 83.7583 86.8515 83.2748 86.3649C82.0592 85.1423 80.8108 83.9526 79.5906 82.7347C69.6915 72.8497 59.7963 62.9616 49.9012 53.0727C49.7812 52.9528 49.6754 52.8204 49.4254 52.539C49.3102 52.7428 49.2546 52.9199 49.1378 53.0367C38.3923 63.7743 27.6421 74.5073 16.8904 85.2387C16.4656 85.6627 16.0291 86.0772 15.5902 86.4871C14.9099 87.1219 14.1027 87.1204 13.3221 86.7959C12.5533 86.4754 12.098 85.8492 12.0337 84.9793C11.9835 84.3006 12.1763 83.7371 12.6685 83.2449C14.1748 81.7402 15.6505 80.2057 17.1553 78.6994C26.755 69.0879 36.3594 59.4811 45.9638 49.8744C46.0735 49.7647 46.2091 49.68 46.3321 49.5836C46.3572 49.5217 46.3815 49.4598 46.4066 49.3979C46.26 49.3125 46.0868 49.2545 45.9716 49.1393C35.2081 38.364 24.4477 27.5864 13.6889 16.8064C13.2649 16.3816 12.8409 15.9529 12.4506 15.4976C11.8973 14.8518 11.9044 14.0955 12.1983 13.3604C12.4984 12.608 13.0815 12.148 13.9115 12.05C14.6725 11.9607 15.2893 12.1872 15.8488 12.7475C19.6459 16.5486 23.4728 20.3206 27.2761 24.1161C34.5709 31.396 41.8556 38.6853 49.1425 45.9731C49.2522 46.0828 49.3337 46.2207 49.4858 46.4206Z" fill="#F8FAFC"/>
<path d="M65.8239 49.5319C66.0222 49.6761 66.164 49.7529 66.273 49.8626C72.8671 56.4756 79.459 63.0909 86.0484 69.7086C86.2953 69.957 86.5774 70.2007 86.7342 70.5033C87.1762 71.3599 87.0523 72.6162 86.1542 73.2956C85.2812 73.9563 84.1362 73.9273 83.3242 73.1742C82.6549 72.5527 82.0013 71.9124 81.3555 71.2658C75.0137 64.9177 68.6735 58.5673 62.3372 52.2145C61.8669 51.7435 61.45 51.2177 60.9641 50.7639C60.363 50.2027 60.3896 48.7866 60.9539 48.2521C61.5887 47.6518 62.1459 46.9707 62.7635 46.3524C69.2605 39.8452 75.7622 33.3427 82.2646 26.8418C82.6244 26.4821 82.9943 26.1302 83.3712 25.7885C84.0523 25.1709 84.8391 25.055 85.6605 25.428C86.481 25.8003 86.9489 26.428 86.9669 27.3849C86.9802 28.0965 86.72 28.6303 86.231 29.1201C82.3759 32.9861 78.535 36.8663 74.683 40.7347C71.8812 43.5482 69.07 46.3524 66.262 49.1596C66.1609 49.2607 66.0434 49.3461 65.8239 49.5319Z" fill="#F8FAFC"/>
<path d="M49.5392 33.1037C49.6724 32.9509 49.7688 32.8263 49.8793 32.7158C56.5503 26.0683 63.2259 19.4264 69.8859 12.7695C70.4314 12.224 71.0278 11.9866 71.7786 12.0422C72.6352 12.1065 73.2112 12.5665 73.5631 13.3118C73.9205 14.0697 73.8492 14.8181 73.3421 15.4898C73.0999 15.8111 72.8045 16.0948 72.5176 16.3808C65.5692 23.323 58.6193 30.2628 51.6677 37.201C51.3911 37.4776 51.0988 37.7402 50.8025 37.9964C50.0023 38.6885 48.9004 38.6736 48.1152 37.9471C47.5399 37.4149 46.9796 36.8663 46.4255 36.3122C39.829 29.7204 33.234 23.1263 26.6406 16.5313C26.3272 16.217 26.016 15.8989 25.726 15.5626C24.9972 14.717 25.1053 13.3769 25.9533 12.5916C26.7676 11.8377 28.1477 11.8173 28.9118 12.5775C34.7834 18.4169 40.6495 24.2611 46.5172 30.1052C47.4145 30.9994 48.3095 31.8968 49.2061 32.7918C49.297 32.8827 49.3934 32.9681 49.5384 33.1045L49.5392 33.1037Z" fill="#F8FAFC"/>
<path d="M49.4154 65.8793C49.319 66.0188 49.2414 66.1779 49.1238 66.2955C42.6621 72.7439 36.1965 79.1891 29.7301 85.6336C29.4432 85.9197 29.1517 86.201 28.8515 86.4722C28.0333 87.2097 26.7065 87.1564 25.9016 86.3609C25.0764 85.5458 25.0113 84.2229 25.7778 83.3883C26.3515 82.7629 26.9432 82.1539 27.5443 81.5544C34.0789 75.0308 40.6158 68.5095 47.1551 61.9906C47.5062 61.6402 47.8715 61.3032 48.2469 60.9796C49.0125 60.3189 50.1372 60.3401 50.8746 61.0415C51.7548 61.8777 52.6262 62.7241 53.4852 63.5831C59.7855 69.8794 66.081 76.1797 72.3766 82.4807C72.6901 82.795 72.9973 83.1171 73.2888 83.451C73.9997 84.266 73.915 85.5694 73.1094 86.364C72.3147 87.1485 70.9792 87.2206 70.1924 86.4965C69.5388 85.8954 68.904 85.2739 68.2754 84.6469C62.1343 78.5238 55.9962 72.3983 49.8597 66.2704C49.7516 66.1623 49.6826 66.0134 49.5948 65.884C49.5353 65.8833 49.4749 65.8825 49.4154 65.8817V65.8793Z" fill="#F8FAFC"/>
<path d="M33.1688 49.4857C32.9643 49.3234 32.8193 49.2302 32.7001 49.111C26.4445 42.8437 20.1897 36.5748 13.9381 30.3035C13.4584 29.8223 12.9851 29.3356 12.5274 28.834C11.7875 28.0229 11.8557 26.6961 12.6622 25.8896C13.478 25.073 14.7351 24.9962 15.569 25.7321C16.029 26.1381 16.4702 26.566 16.9044 27.0001C23.3606 33.4548 29.8161 39.911 36.266 46.3727C36.9024 47.0099 37.5192 47.669 38.1117 48.3469C38.6673 48.9833 38.6595 50.0468 38.096 50.6808C37.4455 51.4128 36.7754 52.1283 36.0834 52.8211C29.6703 59.2452 23.2509 65.6638 16.8315 72.0817C16.4342 72.4782 16.029 72.8677 15.6113 73.2439C14.7852 73.9877 13.4764 73.9297 12.6637 73.1256C11.8479 72.3184 11.7797 70.9664 12.5493 70.1498C13.4717 69.171 14.4145 68.2109 15.3644 67.2579C21.1482 61.46 26.9359 55.666 32.7237 49.8728C32.8334 49.7631 32.9588 49.6683 33.1696 49.4864L33.1688 49.4857Z" fill="#F8FAFC"/>
</svg>
