<svg width="100" height="100" viewBox="0 0 100 100" fill="none" xmlns="http://www.w3.org/2000/svg">
<rect width="100" height="100" rx="10" fill="#D9AD70" style="mix-blend-mode:darken"/>
<path d="M16.0865 78.0638C20.8254 78.0638 25.5643 78.0551 30.3032 78.0763C30.9069 78.0788 31.1988 77.9417 31.1193 77.2835C31.0572 76.775 31.1069 76.3026 31.8124 76.305C32.0049 76.305 32.0894 76.143 32.1006 75.9585C32.1093 75.814 32.1081 75.6681 32.1081 75.5223C32.1081 68.0672 32.108 60.612 32.1068 53.1569C32.1068 52.7755 32.1962 52.3417 31.636 52.2221C31.4572 52.1847 31.4944 51.9877 31.4932 51.8494C31.487 51.2261 31.4832 50.6029 31.4894 49.9809C31.4944 49.4674 31.7428 49.162 32.2745 49.1583C33.3713 49.1508 34.4682 49.167 35.565 49.1495C35.9948 49.1421 36.0445 49.4599 36.0594 49.7242C36.0967 50.4072 36.0768 51.094 36.0693 51.7783C36.0693 51.8768 36.0408 52.0239 35.9749 52.065C35.4147 52.4065 35.5824 52.955 35.5824 53.4424C35.5762 60.9598 35.5787 68.4772 35.5662 75.9934C35.5662 76.2377 35.5886 76.3387 35.8408 76.32C36.4755 76.2701 36.5948 76.6416 36.5823 77.1826C36.56 78.1922 36.5128 78.0576 37.427 78.0613C38.4829 78.0663 39.5375 78.0526 40.5933 78.0676C41.1113 78.075 41.3746 77.8943 41.3051 77.3346C41.233 76.7563 41.2877 76.2415 42.0479 76.1966C42.228 76.1866 42.2926 76.067 42.2951 75.9012C42.2963 75.7554 42.2988 75.6108 42.2988 75.4649C42.2988 67.9687 42.2988 60.4724 42.2988 52.9749C42.2988 52.6534 42.3783 52.3031 41.9311 52.171C41.8417 52.1448 41.7535 51.9803 41.7374 51.8693C41.6181 51.0865 41.6516 50.2988 41.7175 49.5147C41.7349 49.3041 41.946 49.2056 42.1671 49.1445C42.6143 49.0199 43.0739 48.98 43.5186 49.0486C44.2391 49.162 44.9595 49.1558 45.68 49.1445C46.0974 49.1383 46.2862 49.2904 46.27 49.7291C46.2477 50.3511 46.2638 50.9744 46.2651 51.5976C46.2651 51.7659 46.2874 51.9852 46.1545 52.0663C45.6104 52.3966 45.7669 52.9176 45.7669 53.3863C45.762 60.7579 45.7632 68.1307 45.7595 75.5023C45.7595 75.9349 45.7123 76.315 46.352 76.3549C46.7445 76.3798 46.7507 76.8186 46.7607 77.1564C46.7789 77.7605 47.0919 78.0622 47.6998 78.0613C49.7282 78.0613 51.7555 78.0501 53.7839 78.0688C54.2137 78.0725 54.3988 77.9479 54.3491 77.5054C54.3243 77.2798 54.3503 77.0492 54.3429 76.8211C54.3305 76.4883 54.4746 76.2876 54.8149 76.3225C55.2907 76.3724 55.3478 76.1218 55.3466 75.7279C55.3391 68.0858 55.3404 60.4438 55.3416 52.8029C55.3416 52.5511 55.3689 52.3068 55.0397 52.2084C54.9441 52.1797 54.8348 52.0388 54.8137 51.9341C54.6472 51.0953 54.6696 50.2489 54.7913 49.4088C54.8286 49.1508 55.0758 49.152 55.2907 49.152C56.4086 49.152 57.5253 49.157 58.6433 49.1483C59.1451 49.1445 59.3451 49.3689 59.3141 49.875C59.283 50.3923 59.3141 50.9133 59.3066 51.4318C59.3029 51.7709 59.3948 52.1311 58.9327 52.3143C58.6892 52.4115 58.8097 52.7256 58.8097 52.9413C58.8048 59.5239 58.8048 66.1065 58.8048 72.6903C58.8048 73.6875 58.8048 74.6834 58.8048 75.6806C58.8048 75.9336 58.7911 76.133 59.1414 76.2278C59.9451 76.4447 60.0482 76.5855 59.8954 77.463C59.8047 77.9865 59.9712 78.09 60.4208 78.0663C61.6369 78.0052 62.8555 78.1473 64.0728 77.9654C64.4753 77.9055 64.5461 77.746 64.5274 77.4094C64.5138 77.1614 64.5113 76.9096 64.5399 76.6628C64.5697 76.3973 64.6827 76.1667 65.0082 76.2041C65.4963 76.2602 65.5286 75.9772 65.5274 75.5971C65.5175 72.8773 65.5224 70.1562 65.5224 67.4365C65.5224 62.5977 65.5224 57.7601 65.5224 52.9213C65.5224 52.5673 65.5796 52.2096 65.0964 52.085C64.8864 52.0301 64.8964 51.7945 64.8964 51.6051C64.8964 50.9619 64.9038 50.3175 64.8976 49.6743C64.8939 49.2305 65.1051 49.0324 65.5423 49.0336C66.6801 49.0386 67.8192 49.0436 68.957 49.0311C69.3682 49.0261 69.5023 49.2144 69.4924 49.602C69.4762 50.224 69.4862 50.8472 69.4874 51.4705C69.4874 51.6387 69.5098 51.8444 69.3806 51.9429C68.8564 52.3392 68.9906 52.8977 68.9893 53.4187C68.9868 60.7703 68.9893 68.1208 68.9844 75.4724C68.9844 75.885 68.9297 76.2402 69.562 76.2253C70.0178 76.2141 70.1048 76.6466 70.1035 77.0492C70.0998 77.9978 69.9694 77.9479 71.0054 77.9491C75.5579 77.9491 80.1105 77.9491 84.6643 77.9491C84.8506 77.9491 85.0406 77.9317 85.222 77.9641C85.7723 78.0601 85.93 78.444 85.6344 78.9339C85.3363 79.0186 85.0357 79.0647 84.7214 79.0647C61.9661 79.0622 39.2108 79.0647 16.4555 79.071C16.13 79.071 15.8431 79.0261 15.5996 78.803C15.6406 78.5986 15.6816 78.3954 15.7238 78.191C15.8592 78.1847 16.0046 78.2084 16.0928 78.0651L16.0865 78.0638Z" fill="#F8FAFC"/>
<path d="M28.5194 45.4101C29.1765 44.8866 29.8659 44.6323 30.4957 44.3606C31.3142 44.0079 32.0881 43.5629 32.9191 43.2313C33.8843 42.8462 34.7923 42.3177 35.7302 41.8614C37.2419 41.126 38.7536 40.3894 40.2728 39.6689C42.623 38.5546 44.9881 37.4726 47.3283 36.3396C48.2127 35.9108 49.1506 35.5855 49.9766 35.0383C50.276 34.8401 50.5493 35.0146 50.7989 35.123C51.7405 35.5294 52.6858 35.932 53.5963 36.4007C55.0844 37.1673 56.6322 37.8042 58.129 38.5471C60.3462 39.6465 62.6058 40.6524 64.8491 41.6944C67.0552 42.7203 69.2389 43.7922 71.4314 44.8467C71.5531 44.9053 71.7506 44.944 71.6835 45.1372C71.6078 45.3565 71.4413 45.1783 71.3159 45.1758C70.0563 45.1546 68.798 45.2568 67.5421 45.2631C59.9674 45.3079 52.3914 45.197 44.8191 45.3266C39.6492 45.4151 34.4805 45.3416 29.3119 45.4114C29.0895 45.4139 28.8659 45.4114 28.5181 45.4114L28.5194 45.4101Z" fill="#F8FAFC"/>
<path d="M38.7226 31.3637C38.7176 29.2871 39.3449 27.3351 40.5187 25.6686C41.5 24.2751 42.654 22.9538 44.2316 22.1137C44.7918 21.8158 45.3234 21.4767 45.911 21.2162C46.8227 20.8124 47.7606 20.8672 48.7059 20.866C49.9257 20.866 51.1455 20.8672 52.3653 20.8697C53.9988 20.8734 55.3316 21.6712 56.5775 22.5861C57.7439 23.4412 58.7625 24.5032 59.55 25.711C60.0307 26.4489 60.4394 27.2666 60.7549 28.1192C61.1611 29.2198 61.2369 30.369 61.3996 31.507C61.4543 31.886 61.2704 32.0231 60.9363 31.9296C59.2059 31.441 57.4011 31.4435 55.6471 31.1032C55.0459 30.9873 54.4186 30.9698 53.8025 30.9648C51.6312 30.9499 49.4599 30.915 47.2898 30.9723C45.1322 31.0297 42.9832 31.2291 40.8591 31.6516C40.3572 31.7514 39.838 31.7514 39.3436 31.9196C38.8604 32.0842 38.5027 32.0455 38.7213 31.3625L38.7226 31.3637Z" fill="#F8FAFC"/>
<path d="M87.3621 45.8801C87.1249 46.1131 86.9075 46.0346 86.715 46.0346C82.9288 46.0396 79.1427 46.0384 75.3566 46.0396C75.0249 46.0396 74.7044 46.0957 74.6386 45.5984C74.6075 45.3665 74.3405 45.2182 74.1094 45.1073C72.1369 44.1637 70.1916 43.159 68.1867 42.2902C66.4303 41.5286 64.7484 40.6187 62.9932 39.8646C62.4566 39.634 62.2368 39.2314 62.0442 38.7565C61.2629 36.8307 59.9002 35.4085 58.2121 34.2543C56.4731 33.0651 54.5875 32.2736 52.4857 32.0144C53.5552 31.896 54.6148 31.9757 55.6706 32.1016C56.9948 32.2587 58.3127 32.4494 59.6282 32.6787C61.1014 32.9343 62.551 33.2446 63.9634 33.742C65.7173 34.359 67.4179 35.0956 69.019 36.0367C70.7717 37.0675 72.3257 38.3489 73.5616 39.9855C73.5865 40.0192 73.6312 40.0466 73.6374 40.0815C73.856 41.2382 74.81 41.4825 75.7218 41.7929C78.9141 42.8823 82.1115 43.9568 85.2877 45.0911C85.9585 45.3304 86.6553 45.5335 87.3609 45.8801H87.3621Z" fill="#F8FAFC"/>
<path d="M47.7295 32.0193C46.7172 32.1602 45.7408 32.4431 44.7744 32.7934C43.7062 33.181 42.7311 33.732 41.8119 34.3789C41.2082 34.8039 40.6579 35.3137 40.1163 35.8198C39.058 36.8108 38.4145 38.0697 37.9785 39.4296C37.8618 39.7948 37.6916 39.9344 37.3587 40.089C35.7886 40.8157 34.2495 41.6121 32.6856 42.3538C31.0025 43.1503 29.2957 43.8969 27.6176 44.7021C27.1418 44.9302 26.7381 45.283 26.1704 45.3291C25.9357 45.3478 25.7966 45.6844 25.8276 45.8663C25.9059 46.3063 25.6798 46.2876 25.3829 46.2876C21.4514 46.2827 17.5212 46.2852 13.5897 46.2814C13.4544 46.2814 13.319 46.2515 13.0904 46.2241C13.5338 45.7704 14.0767 45.7492 14.5251 45.5759C15.776 45.0923 17.0939 44.7794 18.3286 44.2621C19.3509 43.8333 20.4117 43.5442 21.4452 43.1615C22.9433 42.6056 24.4538 42.087 25.9618 41.5573C26.2437 41.4576 26.4189 41.3043 26.5742 41.0151C27.3865 39.5106 28.4995 38.3053 29.8845 37.257C31.3466 36.1501 32.9825 35.4184 34.5514 34.5372C35.0048 34.2829 35.5203 34.2106 35.9997 34.0249C37.2804 33.5263 38.5673 32.9966 39.9312 32.7859C41.6752 32.5179 43.4031 32.1427 45.1781 32.058C46.0216 32.0181 46.8625 31.957 47.7271 32.0193H47.7295Z" fill="#F8FAFC"/>
<path d="M87.4939 79.9323C87.5746 79.936 87.6553 79.9398 87.7373 79.9435C87.9547 80.1105 88.0739 80.3299 87.9497 80.5892C87.8317 80.8347 87.6466 81.0391 87.3361 81.0454C87.1299 81.0491 86.9225 81.0479 86.715 81.0479C68.2638 81.0479 49.8126 81.0491 31.3627 81.0504C31.2795 81.0504 31.1962 81.0504 31.113 81.0504C25.9804 81.0504 20.8477 81.0504 15.7151 81.0504C15.1201 81.0504 14.5251 81.0479 13.9301 81.0479C12.9997 81.0479 12.8556 80.8559 13.114 79.9497C20.5223 79.946 27.9318 79.941 35.3401 79.9398C52.7243 79.936 70.1084 79.9348 87.4926 79.9323H87.4939Z" fill="#F8FAFC"/>
<path d="M50.2461 32.5865C52.7802 32.4656 55.2608 33.1536 57.519 34.5322C59.0978 35.4957 60.4332 36.7659 61.2928 38.4598C61.376 38.6231 61.5002 38.8076 61.3387 38.9746C61.1872 39.1292 61.0294 38.9759 60.8878 38.9111C58.7401 37.9151 56.5601 36.9803 54.4596 35.8909C53.2733 35.2764 52.0262 34.7977 50.861 34.1483C50.512 33.9538 50.1952 33.9539 49.8163 34.1446C48.0711 35.0183 46.311 35.8634 44.5508 36.7061C42.772 37.5574 40.9858 38.3938 39.2045 39.2414C39.0616 39.3087 38.9449 39.4844 38.7772 39.2999C38.6331 39.1416 38.7312 38.9896 38.8045 38.8412C39.6914 37.0501 40.9796 35.6266 42.6664 34.5584C44.9433 33.115 47.4401 32.5229 50.2461 32.5852V32.5865Z" fill="#F8FAFC"/>
<path d="M50.0412 19.986C49.1319 19.986 48.2226 19.971 47.3134 19.9922C46.8873 20.0022 46.691 19.7878 46.6625 19.4138C46.6277 18.9713 46.9718 19.005 47.2637 19.005C48.999 19.0037 50.7355 19.005 52.4708 19C52.7031 19 52.9218 19.0224 53.1242 19.1471C53.3652 19.2954 53.3453 19.5273 53.3205 19.7554C53.2919 20.0308 53.0683 19.9822 52.8919 19.9835C51.9417 19.9872 50.9914 19.9847 50.0399 19.9847L50.0412 19.986Z" fill="#F8FAFC"/>
<path d="M16.0865 78.0638C15.9983 78.2084 15.853 78.1835 15.7176 78.1897C15.6468 78.1386 15.5946 78.0514 15.6691 77.999C15.8132 77.8968 15.9673 77.9118 16.0865 78.0638Z" fill="#F8FAFC"/>
</svg>
