<svg width="100" height="100" viewBox="0 0 100 100" fill="none" xmlns="http://www.w3.org/2000/svg">
<rect width="100" height="100" rx="10" fill="#A855F7"/>
<path d="M68.25 22.375L58.875 27.0625L68.25 31.75L72.9375 41.125L77.625 31.75L87 27.0625L77.625 22.375L72.9375 13L68.25 22.375ZM49.5 59.875L60.3838 54.4258L68.25 50.5L60.3838 46.5742L49.5 41.125L44.0508 30.2412L40.125 22.375L36.1992 30.2412L30.75 41.125L19.8662 46.5742L12 50.5L19.8662 54.4258L30.75 59.875L36.1992 70.7588L40.125 78.625L44.0508 70.7588L49.5 59.875ZM40.125 62.9072L37.0342 56.7402L35.9795 54.6455L33.8848 53.5908L27.7178 50.5L33.8848 47.4092L35.9795 46.3545L37.0342 44.2598L40.125 38.0928L43.2158 44.2598L44.2705 46.3545L46.3652 47.4092L52.5322 50.5L46.3652 53.5908L44.2705 54.6455L43.2158 56.7402L40.125 62.9072ZM72.9375 59.875L68.25 69.25L58.875 73.9375L68.25 78.625L72.9375 88L77.625 78.625L87 73.9375L77.625 69.25L72.9375 59.875Z" fill="#F8FAFC"/>
</svg>
