<svg width="100" height="100" viewBox="0 0 100 100" fill="none" xmlns="http://www.w3.org/2000/svg">
<rect width="100" height="100" rx="10" fill="#790427"/>
<path d="M88 25.9642C87.7979 26.1945 87.7885 26.5047 87.6663 26.7679C86.872 28.4741 85.9602 30.1073 84.623 31.4586C83.5585 32.5349 82.3106 33.3245 80.8512 33.7828C79.3731 34.2457 77.8761 34.6429 76.3885 35.0729C73.7471 35.8367 71.0892 36.5393 68.4455 37.2937C66.9367 37.7237 65.4045 38.0762 63.9311 38.6285C63.2895 38.8682 62.6855 39.1902 62.1027 39.5474C61.7949 39.7377 61.7925 39.8012 62.1145 39.9962C62.6832 40.3393 63.2355 40.7083 63.7619 41.1125C65.3129 42.3016 66.7088 43.6411 67.6934 45.3543C68.1024 46.064 68.3609 46.8324 68.6076 47.615C68.8332 48.3294 68.8356 49.0673 69.0024 49.7817C69.0941 50.1718 69.04 50.5784 69.04 50.9779C69.04 51.133 68.9766 51.2011 68.8215 51.1189C68.6335 51.0178 68.4431 50.9238 68.2763 50.7805C67.4702 50.0825 66.5983 49.4551 65.6372 49.0109C65.1178 48.7712 64.5797 48.5245 63.9804 48.4093C63.5245 48.3224 63.024 48.2871 62.5915 48.0662C62.3847 47.9604 62.286 48.0004 62.2179 48.2378C62.0087 48.9874 61.8748 49.7606 61.5505 50.475C61.2638 51.1048 60.923 51.6899 60.4953 52.2492C60.171 52.6722 59.7363 53.0341 59.5436 53.5629C59.3885 53.9906 59.3861 54.4066 59.5436 54.8343C59.8773 55.732 60.5094 56.4581 60.9395 57.2994C61.292 57.988 61.5834 58.6977 61.5458 59.4967C61.5434 59.5555 61.5458 59.6142 61.5575 59.6706C61.6421 60.0913 61.6938 60.5096 61.6022 60.942C61.4729 61.5553 61.6351 62.1992 61.4776 62.8032C61.3272 63.3884 61.3554 63.9806 61.2802 64.5634C61.2215 65.024 61.0852 65.4846 60.9301 65.9334C60.7961 66.3188 60.6927 66.7113 60.5235 67.0849C60.0723 68.0837 59.4778 69.0002 58.8809 69.9144C58.6835 70.2152 58.5918 70.5606 58.519 70.892C58.4344 71.275 58.7093 71.5923 58.9537 71.8719C59.3297 72.3043 59.6352 72.7696 59.8162 73.3196C59.9078 73.5969 59.8749 73.846 59.7692 74.1115C59.5224 74.7413 59.0407 75.1291 58.4649 75.4299C58.1876 75.5756 57.9103 75.7166 57.6377 75.8693C56.8974 76.29 56.2982 76.8399 55.9974 77.6624C55.901 77.9279 55.8564 78.2029 55.7624 78.4708C55.5767 79.009 55.1866 79.3168 54.7237 79.5636C54.1221 79.8855 53.5111 80.1887 52.9047 80.5012C52.8107 80.5506 52.712 80.6046 52.6345 80.6775C51.8848 81.3778 51.0177 81.3308 50.1106 81.1052C49.3656 80.9195 48.6136 80.7574 47.8687 80.5717C47.0015 80.3555 46.2918 79.8691 45.6455 79.2698C44.8794 78.5578 44.2261 77.7399 43.4647 77.0232C43.0065 76.5908 42.5317 76.1795 41.9301 75.9774C41.5142 75.8388 41.117 75.639 40.6635 75.6038C40.2616 75.5732 39.8927 74.8988 39.9961 74.417C40.0854 73.9987 40.2851 73.6204 40.5554 73.3008C40.8985 72.8989 41.0747 72.4148 41.3191 71.9636C41.3943 71.8273 41.3708 71.6604 41.3121 71.5077C41.0818 70.9084 40.6823 70.4384 40.2005 70.0319C39.8269 69.717 39.4908 69.3621 39.1148 69.0519C38.5226 68.5608 38.4427 67.9215 38.5062 67.2283C38.5344 66.9204 38.5931 66.6243 38.7224 66.3282C38.9292 65.8559 38.9033 65.3412 38.6542 64.8853C38.1678 63.99 37.8928 63.0429 37.7777 62.0324C37.6672 61.0642 37.7401 60.103 37.8623 59.1489C37.914 58.7541 38.0996 58.3711 38.2547 57.995C38.6472 57.0409 39.2605 56.2161 39.8151 55.3536C40.0431 54.9988 40.2663 54.6228 40.3533 54.2233C40.4825 53.6264 40.5883 52.9613 39.982 52.5383C39.1806 51.9813 38.8845 51.1894 38.7741 50.2799C38.7506 50.0849 38.6613 49.9086 38.5837 49.7277C38.4075 49.3188 38.1349 49.1284 37.6554 49.1355C36.8729 49.1449 36.1843 49.4621 35.4723 49.7018C34.2832 50.1013 33.1505 50.616 32.1728 51.4267C31.8979 51.6547 31.5947 51.7299 31.2493 51.5654C31.0918 51.4902 31.0495 51.3962 31.1153 51.2411C31.7757 49.6548 32.5582 48.1367 33.5523 46.7243C34.4641 45.4318 35.5263 44.285 36.6708 43.2063C37.5027 42.4214 38.4333 41.7587 39.3381 41.0631C39.4626 40.9691 39.5825 40.8681 39.6953 40.7623C40.0948 40.391 40.0713 39.9727 39.6154 39.6696C38.8563 39.1643 38.0409 38.7789 37.1807 38.4711C35.672 37.9305 34.0999 37.7049 32.5183 37.5757C31.1012 37.4605 29.6795 37.383 28.2671 37.2208C26.8923 37.0634 25.5246 36.8613 24.1804 36.5135C22.4085 36.0552 20.6883 35.4654 19.0762 34.5888C18.0093 34.0084 16.9987 33.3339 16.1598 32.455C15.3185 31.5714 14.59 30.5867 13.9978 29.5151C13.6876 28.9535 13.3938 28.3848 13.1635 27.7784C12.8721 27.0076 12.9685 26.3261 13.4667 25.694C13.7933 25.2804 14.1717 24.9161 14.5994 24.6012C15.4665 23.962 16.5522 24.3192 17.1303 25.0665C18.0422 26.2462 18.9375 27.4424 19.9339 28.5516C20.7776 29.4916 21.8257 30.1402 22.9937 30.6008C23.1558 30.6643 23.3321 30.6901 23.5107 30.6901C24.0488 30.6901 24.3849 30.2977 24.2979 29.7689C24.2815 29.6632 24.258 29.5551 24.2157 29.4587C23.795 28.5258 23.4966 27.5505 23.2099 26.5705C23.13 26.2979 23.0595 26.0253 23.0759 25.7386C23.0759 25.6987 23.0853 25.6564 23.0712 25.6235C22.6623 24.6153 22.9114 23.5602 22.8433 22.5261C22.8245 22.2277 22.9044 21.9527 22.996 21.6707C23.3415 20.6085 24.1217 20.1127 25.1674 19.9106C25.8466 19.779 26.42 19.974 26.8641 20.4558C27.1179 20.7307 27.3647 21.0668 27.3341 21.4992C27.3318 21.5462 27.3271 21.6049 27.3482 21.6425C27.602 22.1008 27.5738 22.6013 27.5668 23.0996C27.5668 23.1372 27.5621 23.1842 27.5785 23.2147C27.8347 23.7035 27.8065 24.2346 27.8018 24.7587C27.8018 24.7986 27.7924 24.8456 27.8112 24.8738C28.1567 25.3932 28.105 26.0253 28.3 26.587C28.4974 27.158 28.6925 27.7314 28.958 28.2743C29.2917 28.9511 29.6983 29.5786 30.22 30.1285C30.3868 30.3047 30.4855 30.2789 30.6054 30.0556C30.8686 29.5715 30.838 29.1203 30.6571 28.6057C30.2576 27.4659 30.1401 26.2815 30.2717 25.0712C30.4385 23.5226 31.1459 22.2159 32.0694 21.0104C32.2809 20.7354 32.5841 20.5733 32.9742 20.5545C33.9612 20.5075 34.6874 20.9023 35.1832 21.7459C35.2326 21.8305 35.2843 21.9151 35.289 22.0138C35.3313 22.881 35.4394 23.7787 35.2443 24.6059C35.007 25.607 35.1503 26.6269 34.9036 27.6092C34.866 27.7549 34.9224 27.8983 34.9341 28.044C35.0164 29.1156 35.3665 30.112 35.8248 31.0732C36.0245 31.4915 36.2713 31.8581 36.8306 31.804C36.9974 31.7876 37.1314 31.7406 37.2395 31.616C37.4157 31.4139 37.5285 31.1813 37.6131 30.9275C37.9304 29.964 38.2289 28.9958 38.5814 28.0463C38.9903 26.9489 39.5895 25.9595 40.4496 25.1464C40.8726 24.7446 41.3403 24.4884 41.9677 24.5307C42.842 24.5895 43.6386 25.6211 43.4107 26.4648C43.1733 27.3437 42.7714 28.1592 42.4518 29.0075C41.9748 30.2742 41.4037 31.5056 41.0959 32.8333C40.9995 33.2517 40.9361 33.6606 40.9079 34.0906C40.8374 35.2069 41.6481 35.8907 42.3461 36.2338C42.6422 36.3795 43.0135 36.3913 43.2791 36.5276C43.9629 36.873 44.6562 36.6968 45.333 36.6897C45.763 36.685 46.2095 36.4782 46.5996 36.2409C47.1425 35.9119 47.7065 35.5993 48.3034 35.409C48.7664 35.2609 49.2152 34.9813 49.7487 35.0682C50.0401 35.1152 50.2892 34.8967 50.597 34.8943C51.8848 34.8849 53.1186 35.1011 54.2866 35.6534C54.4981 35.7544 54.7166 35.8367 54.9328 35.9283C55.7036 36.255 56.5026 36.3654 57.3345 36.262C57.4027 36.2526 57.4732 36.2432 57.539 36.2526C58.2252 36.349 58.8762 36.1187 59.5248 35.9824C60.2979 35.8202 60.8948 35.3385 61.2121 34.5771C61.245 34.4995 61.2591 34.4079 61.2638 34.3233C61.3131 33.6559 61.2097 33.019 60.9935 32.3774C60.399 30.6196 59.6822 28.9159 58.8198 27.2732C58.6318 26.9136 58.4555 26.5494 58.4485 26.117C58.4391 25.4472 58.7892 25.0078 59.2851 24.6294C59.7762 24.2558 60.3332 24.2699 60.8995 24.3192C61.1322 24.3404 61.3084 24.4978 61.4894 24.6271C62.5187 25.3532 63.2049 26.3473 63.6914 27.487C64.0603 28.3566 64.387 29.2449 64.81 30.0932C64.9463 30.3635 65.0802 30.6337 65.2729 30.8711C65.3293 30.9392 65.3857 31.0074 65.4539 31.0614C65.7147 31.28 66.0343 31.4233 66.3469 31.2941C66.6712 31.1578 66.8075 30.8288 66.9015 30.481C67.0519 29.9123 67.0777 29.3107 67.3268 28.7678C67.3832 28.648 67.3597 28.5187 67.3597 28.3918C67.3621 28.1004 67.3339 27.8043 67.5477 27.5575C67.6206 27.4729 67.5947 27.3507 67.5947 27.245C67.5947 26.8267 67.5783 26.406 67.5994 25.9877C67.6441 25.0101 67.4326 24.0772 67.2046 23.1348C67.0472 22.4838 66.8051 21.8399 66.8827 21.1396C66.925 20.7636 67.0049 20.4182 67.2634 20.1526C68.3844 19.0129 70.208 19.3137 70.8237 20.5662C71.108 21.1443 71.3618 21.7342 71.5545 22.3475C71.5804 22.4298 71.5968 22.5167 71.6062 22.6037C71.8295 24.3357 71.8859 26.077 71.8459 27.8207C71.8365 28.2062 72.0128 28.5187 72.2454 28.8007C72.4405 29.0381 72.7178 29.0357 72.9716 28.9417C73.2677 28.8313 73.5215 28.6315 73.6813 28.3542C74.0197 27.7714 74.2477 27.1439 74.4122 26.4906C74.5015 26.1334 74.5203 25.7198 74.6707 25.4331C74.9198 24.9631 74.7999 24.5119 74.8587 24.056C74.8704 23.9691 74.8681 23.8751 74.901 23.7975C75.1477 23.2194 75.0843 22.6107 75.0866 22.0091C75.0866 21.5015 75.1101 20.9939 75.0796 20.4887C75.0467 19.9364 75.1806 19.4241 75.3639 18.9212C75.4932 18.564 75.7799 18.3431 76.0995 18.1598C76.1582 18.1269 76.311 18.1504 76.217 18H77.5048C77.3849 18.1692 77.5588 18.1481 77.627 18.1739C78.1863 18.3831 78.5553 18.7873 78.849 19.2972C79.0958 19.7273 79.0652 20.1926 79.1357 20.6508C79.265 21.5015 79.3989 22.3428 79.2814 23.2077C79.2109 23.727 79.0676 24.2393 79.1052 24.7728C79.1663 25.6329 78.8866 26.446 78.7456 27.2779C78.6751 27.6985 78.5835 28.1192 78.5459 28.5446C78.5247 28.796 78.5811 29.1133 78.8561 29.1791C79.2744 29.2801 79.7232 29.3412 80.1227 29.0616C81.1309 28.3589 81.9839 27.4823 82.7571 26.5447C83.2154 25.9901 83.6384 25.3791 83.9721 24.7258C84.2423 24.1947 84.6395 23.7693 85.0813 23.3769C85.2387 23.2382 85.4173 23.1419 85.6335 23.1325C86.5876 23.0902 87.3561 23.3886 87.8049 24.291C87.8519 24.385 87.8966 24.4861 87.9882 24.5519V25.9572L88 25.9642Z" fill="#F8FAFC"/>
</svg>
